<svg width="16" height="16" viewBox="0 0 16 16" fill="none" xmlns="http://www.w3.org/2000/svg">
<path opacity="0.35" d="M0.914696 11.9207C-0.304899 10.3699 -0.304899 8.19206 0.914696 6.64117C2.34617 4.82161 4.70818 2.72827 8 2.72827C11.2918 2.72827 13.6538 4.82161 15.0853 6.6419C16.3049 8.19279 16.3049 10.3706 15.0853 11.9215C13.6538 13.741 11.2918 15.8344 8 15.8344C4.70818 15.8344 2.34617 13.741 0.914696 11.9207Z" fill="#CCCCCC"/>
<path d="M3.78351 7.15276C3.68157 7.50954 3.63061 7.88816 3.63061 8.28134C3.63061 10.6914 5.58924 12.65 7.99931 12.65C8.39249 12.65 8.77111 12.5991 9.12789 12.4971L3.78351 7.15276ZM7.99931 3.91264C6.93626 3.91264 5.96786 4.29127 5.21062 4.91745C5.90961 5.59459 6.63773 6.30815 7.37313 7.03626C7.577 6.49018 8.10852 6.09699 8.72742 6.09699C9.52835 6.09699 10.1837 6.7523 10.1837 7.55323C10.1837 8.17213 9.79047 8.70365 9.24439 8.91481C9.97978 9.6502 10.6933 10.3783 11.3632 11.07C11.9894 10.3128 12.368 9.34439 12.368 8.28134C12.368 5.87128 10.4094 3.91264 7.99931 3.91264Z" fill="#CCCCCC"/>
<path d="M14.5525 15.5625C14.3661 15.5625 14.1797 15.4912 14.0378 15.3492L0.93166 2.24308C0.646966 1.95838 0.646966 1.49821 0.93166 1.21352C1.21635 0.928827 1.67652 0.928827 1.96122 1.21352L15.0673 14.3196C15.352 14.6043 15.352 15.0645 15.0673 15.3492C14.9253 15.4912 14.7389 15.5625 14.5525 15.5625Z" fill="#CCCCCC"/>
</svg>
