<svg width="16" height="14" viewBox="0 0 16 14" fill="none" xmlns="http://www.w3.org/2000/svg">
<path opacity="0.35" d="M0.914696 10.0902C-0.304899 8.53929 -0.304899 6.36149 0.914696 4.8106C2.34617 2.99104 4.70818 0.897705 8 0.897705C11.2918 0.897705 13.6538 2.99104 15.0853 4.81133C16.3049 6.36222 16.3049 8.54002 15.0853 10.0909C13.6538 11.9105 11.2918 14.0038 8 14.0038C4.70818 14.0038 2.34617 11.9105 0.914696 10.0902Z" fill="#3972EF"/>
<path d="M7.99932 3.08203C5.58634 3.08203 3.63062 5.03775 3.63062 7.45073C3.63062 9.86371 5.58634 11.8194 7.99932 11.8194C10.4123 11.8194 12.368 9.86371 12.368 7.45073C12.368 5.03775 10.4123 3.08203 7.99932 3.08203ZM7.99932 8.8568C7.19475 8.8568 6.54308 8.20514 6.54308 7.40057C6.54308 6.596 7.19475 5.94433 7.99932 5.94433C8.80388 5.94433 9.45555 6.596 9.45555 7.40057C9.45555 8.20514 8.80388 8.8568 7.99932 8.8568Z" fill="#3972EF"/>
</svg>
