<svg width="16" height="15" viewBox="0 0 16 15" fill="none" xmlns="http://www.w3.org/2000/svg">
<path opacity="0.35" d="M0.914696 11.093C-0.304899 9.54216 -0.304899 7.36436 0.914696 5.81347C2.34617 3.99391 4.70818 1.90057 8 1.90057C11.2918 1.90057 13.6538 3.99391 15.0853 5.8142C16.3049 7.36509 16.3049 9.54289 15.0853 11.0938C13.6538 12.9133 11.2918 15.0067 8 15.0067C4.70818 15.0067 2.34617 12.9133 0.914696 11.093Z" fill="#CCCCCC"/>
<path d="M3.78351 6.32507C3.68157 6.68184 3.63061 7.06046 3.63061 7.45365C3.63061 9.86371 5.58924 11.8223 7.99931 11.8223C8.39249 11.8223 8.77111 11.7714 9.12789 11.6694L3.78351 6.32507ZM7.99931 3.08495C6.93626 3.08495 5.96786 3.46357 5.21062 4.08975C5.90961 4.7669 6.63773 5.48045 7.37313 6.20857C7.577 5.66248 8.10852 5.2693 8.72742 5.2693C9.52835 5.2693 10.1837 5.9246 10.1837 6.72553C10.1837 7.34443 9.79047 7.87595 9.24439 8.08711C9.97978 8.82251 10.6933 9.55062 11.3632 10.2423C11.9894 9.48509 12.368 8.5167 12.368 7.45365C12.368 5.04358 10.4094 3.08495 7.99931 3.08495Z" fill="#CCCCCC"/>
<path d="M14.5525 14.7348C14.3661 14.7348 14.1797 14.6635 14.0378 14.5215L0.93166 1.41538C0.646966 1.13069 0.646966 0.670516 0.93166 0.385822C1.21635 0.101129 1.67652 0.101129 1.96122 0.385822L15.0673 13.4919C15.352 13.7766 15.352 14.2368 15.0673 14.5215C14.9253 14.6635 14.7389 14.7348 14.5525 14.7348Z" fill="#CCCCCC"/>
</svg>
