<svg width="46" height="46" viewBox="0 0 46 46" fill="none" xmlns="http://www.w3.org/2000/svg">
<path d="M39.9342 6.12836C41.5998 6.12836 43.1633 6.13974 44.7269 6.12836C45.2368 6.12836 45.6786 6.20803 45.9052 6.72019C46.1318 7.24373 45.9279 7.66483 45.5427 8.04042C43.152 10.4419 40.784 12.8547 38.3707 15.2448C38.1441 15.4724 37.6795 15.5407 37.3283 15.5407C35.946 15.5521 34.5751 15.5407 33.1928 15.4838C32.6943 15.461 32.3544 15.6203 32.0145 15.9732C27.6637 20.3663 27.2903 20.7481 22.9168 25.1299C22.6222 25.4258 22.5089 25.6648 22.5996 26.1087C22.8602 27.4289 22.169 28.7264 20.9907 29.3296C19.835 29.9101 18.4074 29.6824 17.4897 28.7605C16.5946 27.85 16.3567 26.4388 16.9118 25.2893C17.4897 24.0828 18.7473 23.4455 20.0956 23.6048C20.3109 23.6276 20.6055 23.5138 20.7641 23.3544C25.2622 18.8588 25.7489 18.3519 30.2243 13.8335C30.3943 13.6628 30.5189 13.3441 30.5189 13.0937C30.5415 11.6369 30.5416 10.1687 30.5302 8.71191C30.5189 8.22252 30.6775 7.84694 31.0174 7.49412C33.3514 5.17234 35.6741 2.83917 37.9855 0.494631C38.3594 0.119049 38.7333 -0.142722 39.2884 0.0849038C39.8209 0.312529 39.9456 0.7564 39.9456 1.29132C39.9342 2.89608 39.9342 4.47808 39.9342 6.12836ZM32.581 13.5148C34.0199 13.5148 35.3682 13.5262 36.7278 13.5034C36.9884 13.4921 37.317 13.3782 37.5096 13.1848C39.0618 11.6597 40.5914 10.1118 42.121 8.57534C42.2229 8.47291 42.2909 8.35909 42.4382 8.18837C41.3279 8.18837 40.3195 8.18837 39.2998 8.18837C38.2347 8.18837 37.9175 7.8697 37.9175 6.79986C37.9175 5.75278 37.9175 4.7057 37.9175 3.63586C37.8042 3.67001 37.7589 3.65863 37.7362 3.68139C36.082 5.34305 34.4278 6.99334 32.7736 8.66639C32.6829 8.75744 32.5923 8.92816 32.5923 9.05335C32.5696 10.4988 32.581 11.9328 32.581 13.5148Z" fill="#3972EF"/>
<path d="M19.3628 36.8804C13.3332 36.8804 8.65044 31.9002 8.948 25.8115C9.24557 20.035 14.5234 15.5856 20.4121 16.1789C21.477 16.2881 22.0252 16.8502 21.9625 17.7401C21.8842 18.5987 21.2108 19.0671 20.1458 18.989C16.9196 18.7549 14.4451 20.0194 12.785 22.7672C11.2189 25.3588 11.4381 28.6529 13.3332 31.0572C15.3535 33.6175 18.0159 34.5386 21.1951 33.8361C24.0925 33.196 26.379 30.7293 26.8175 27.7942C26.9428 27.0136 26.9272 26.1862 26.8488 25.39C26.7549 24.2971 27.1308 23.5634 28.0078 23.4072C28.8692 23.2667 29.4956 23.86 29.6679 24.9528C30.5919 31.2445 25.7369 36.8804 19.3628 36.8804Z" fill="#3972EF"/>
<path d="M36.1919 19.7635C37.7504 23.6253 37.9217 27.9079 36.6766 31.8818C35.4315 35.8557 32.847 39.275 29.3635 41.557C25.88 43.8389 21.713 44.8424 17.5725 44.3965C13.4321 43.9506 9.57434 42.0828 6.65662 39.1114C3.73891 36.14 1.94174 32.2489 1.57134 28.101C1.20094 23.9531 2.28023 19.8051 4.6253 16.3638C6.97038 12.9224 10.4361 10.4007 14.4321 9.22817C18.428 8.05568 22.7069 8.30499 26.5396 9.93364" stroke="#CCCCCC" stroke-width="3" stroke-linecap="round"/>
</svg>
