<svg width="17" height="16" viewBox="0 0 17 16" fill="none" xmlns="http://www.w3.org/2000/svg">
<path opacity="0.35" d="M9 16C13.4183 16 17 12.4183 17 8C17 3.58172 13.4183 0 9 0C4.58172 0 1 3.58172 1 8C1 12.4183 4.58172 16 9 16Z" fill="#CCCCCC"/>
<path d="M9.46245 1.61679C7.60485 1.48399 5.78565 2.16319 4.47365 3.47519C3.16165 4.78719 2.48485 6.60479 2.61605 8.46239C2.85045 11.792 5.74645 14.4 9.20725 14.4H10.5992C11.0408 14.4 11.3992 14.0424 11.3992 13.6C11.3992 13.1576 11.0408 12.8 10.5992 12.8H9.20725C6.58245 12.8 4.38805 10.8456 4.21205 8.35039C4.11365 6.95519 4.62165 5.59039 5.60565 4.60639C6.58885 3.62239 7.95365 3.11839 9.35045 3.21199C11.8448 3.38799 13.7992 5.58319 13.7992 8.20799V8.79999C13.7992 9.24159 13.44 9.59999 12.9992 9.59999C12.5584 9.59999 12.1992 9.24159 12.1992 8.79999V7.99999C12.1992 6.23519 10.764 4.79999 8.99925 4.79999C7.23445 4.79999 5.79925 6.23519 5.79925 7.99999C5.79925 9.76479 7.23445 11.2 8.99925 11.2C9.83925 11.2 10.5992 10.868 11.1704 10.336C11.6112 10.86 12.2632 11.2 12.9992 11.2C14.3224 11.2 15.3992 10.1232 15.3992 8.79999V8.20799C15.3992 4.74719 12.7912 1.85039 9.46245 1.61679ZM8.99925 9.59999C8.11685 9.59999 7.39925 8.88239 7.39925 7.99999C7.39925 7.11759 8.11685 6.39999 8.99925 6.39999C9.88165 6.39999 10.5992 7.11759 10.5992 7.99999C10.5992 8.88239 9.88165 9.59999 8.99925 9.59999Z" fill="#CCCCCC"/>
</svg>
